# xmcd
#
# Track frame offsets: 
#        150
#        24831
#        42652
#        57919
#
# Disc length: 1100 seconds
#
# Revision: 2
# Processed by: cddbd v1.5.2PL0 Copyright (c) Steve Scherf et al.
# Submitted via: ExactAudioCopyFreeDBPlugin 1.0
#
DISCID=2c044a04
DTITLE=Crystal Kay - Kiss
DYEAR=2005
DGENRE=JPop
TTITLE0=Kiss
TTITLE1=got to move on
TTITLE2=Sweet Friends
TTITLE3=Kiss (Instrumental)
EXTD=
EXTT0=
EXTT1=
EXTT2=
EXTT3=
PLAYORDER=
